<?xml version="1.0" standalone="no"?><!DOCTYPE svg PUBLIC "-//W3C//DTD SVG 1.1//EN" "http://www.w3.org/Graphics/SVG/1.1/DTD/svg11.dtd"><svg t="1570531232220" class="icon" viewBox="0 0 1024 1024" version="1.1" xmlns="http://www.w3.org/2000/svg" p-id="5787" xmlns:xlink="http://www.w3.org/1999/xlink" width="200" height="200"><defs><style type="text/css"></style></defs><path d="M762.317 937.667a8 8 0 0 1-8 8h-486.65a8 8 0 0 1-8-8v-49.861a8 8 0 0 1 8-8h486.651a8 8 0 0 1 8 8v49.861z" fill="#1296db" p-id="5788"></path><path d="M887.992 106.606a8 8 0 0 1-8 8H144.636a8 8 0 0 1-8-8V78.768a8 8 0 0 1 8-8h735.356a8 8 0 0 1 8 8v27.838z" fill="#1296db" p-id="5789"></path><path d="M869.268 121.601H154.732c-15.796 0-28.646-12.85-28.646-28.646s12.85-28.646 28.646-28.646h714.536c15.794 0 28.646 12.85 28.646 28.646s-12.852 28.646-28.646 28.646zM154.732 81.903c-6.095 0-11.052 4.957-11.052 11.052s4.957 11.052 11.052 11.052h714.536c6.095 0 11.052-4.957 11.052-11.052s-4.957-11.052-11.052-11.052H154.732zM767.111 885.266H256.889c-4.858 0-8.797-3.691-8.797-8.549s3.939-8.549 8.797-8.549h510.222c4.858 0 8.797 3.691 8.797 8.549s-3.939 8.549-8.797 8.549zM778.648 785.832a8.769 8.769 0 0 1-6.22-2.577L175.365 186.191c-2.204-2.202-2.112-10.329 0-12.439 3.432-3.436 9.007-3.436 12.439 0l597.064 597.064a8.794 8.794 0 0 1 0 12.439 8.773 8.773 0 0 1-6.22 2.577z" fill="#1296db" p-id="5790"></path><path d="M790.869 678.958a8.769 8.769 0 0 1-6.22-2.577L227.275 119.009a8.794 8.794 0 0 1 0-12.439c3.432-3.436 9.007-3.436 12.439 0l557.375 557.372a8.794 8.794 0 0 1 0 12.439 8.77 8.77 0 0 1-6.22 2.577zM802.234 571.235a8.769 8.769 0 0 1-6.22-2.577l-449.64-449.636a8.794 8.794 0 0 1 0-12.439c3.432-3.436 9.003-3.436 12.439 0l449.64 449.636a8.794 8.794 0 0 1 0 12.439 8.77 8.77 0 0 1-6.219 2.577zM812.56 462.476a8.769 8.769 0 0 1-6.22-2.577L465.457 119.015a8.794 8.794 0 0 1 0-12.439c2.194-2.197 10.085-2.357 12.439 0L818.78 447.459a8.794 8.794 0 0 1 0 12.439 8.766 8.766 0 0 1-6.22 2.578zM824.832 355.658a8.769 8.769 0 0 1-6.22-2.577L584.549 119.015a8.794 8.794 0 0 1 0-12.439c2.419-2.419 10.305-2.135 12.439 0l234.064 234.066c2.923 2.921 3.004 9.438 0 12.439a8.769 8.769 0 0 1-6.22 2.577zM836.159 247.894a8.769 8.769 0 0 1-6.22-2.577L703.634 119.013a8.794 8.794 0 0 1 0-12.439c2.636-2.636 10.527-1.912 12.439 0l126.306 126.303c2.67 2.669 2.654 9.787 0 12.439a8.766 8.766 0 0 1-6.22 2.578zM753.52 879.793a8.769 8.769 0 0 1-6.22-2.577L189.256 319.169c-2.527-2.525-2.213-10.227 0-12.439 3.432-3.436 9.003-3.436 12.439 0L759.74 864.776a8.794 8.794 0 0 1 0 12.439 8.766 8.766 0 0 1-6.22 2.578zM634.427 879.789a8.769 8.769 0 0 1-6.22-2.577L203.139 452.143c-2.869-2.867-2.542-9.899 0-12.439 3.432-3.436 9.007-3.436 12.439 0l425.068 425.068a8.794 8.794 0 0 1 0 12.439 8.763 8.763 0 0 1-6.219 2.578zM515.344 879.793a8.765 8.765 0 0 1-6.22-2.577L217.067 585.16a8.794 8.794 0 0 1 0-12.439c3.432-3.436 9.007-3.436 12.439 0l292.06 292.056a8.801 8.801 0 0 1 0 12.439 8.77 8.77 0 0 1-6.222 2.577zM396.257 879.797a8.769 8.769 0 0 1-6.22-2.577L230.999 718.179a8.794 8.794 0 0 1 0-12.439c3.432-3.436 9.003-3.436 12.439 0l159.038 159.041a8.794 8.794 0 0 1 0 12.439 8.763 8.763 0 0 1-6.219 2.577z" fill="#1296db" p-id="5791"></path><path d="M246.069 800.741a8.765 8.765 0 0 1-6.22-2.577 8.794 8.794 0 0 1 0-12.439l594.45-594.448a8.794 8.794 0 0 1 12.439 0c2.153 2.152 1.959 10.481 0 12.439l-594.45 594.448a8.761 8.761 0 0 1-6.219 2.577zM235.24 692.48a8.769 8.769 0 0 1-6.22-2.577 8.794 8.794 0 0 1 0-12.439l570.881-570.879a8.794 8.794 0 0 1 12.439 0 8.794 8.794 0 0 1 0 12.439L241.46 689.903a8.765 8.765 0 0 1-6.22 2.577zM223.048 585.585a8.765 8.765 0 0 1-6.22-2.577 8.794 8.794 0 0 1 0-12.439l463.984-463.984a8.794 8.794 0 0 1 12.439 0 8.794 8.794 0 0 1 0 12.439L229.268 583.008a8.765 8.765 0 0 1-6.22 2.577zM211.768 477.774a8.765 8.765 0 0 1-6.22-2.577c-2.925-2.924-2.307-10.134 0-12.439L561.736 106.57c2.583-2.583 10.433-2.006 12.439 0a8.794 8.794 0 0 1 0 12.439L217.988 475.196a8.762 8.762 0 0 1-6.22 2.578zM200.499 369.953a8.769 8.769 0 0 1-6.22-2.577c-2.698-2.696-2.453-9.988 0-12.439l248.367-248.365c2.932-2.935 9.517-2.922 12.439 0a8.794 8.794 0 0 1 0 12.439L206.719 367.376a8.765 8.765 0 0 1-6.22 2.577zM189.241 262.122a8.765 8.765 0 0 1-6.22-2.577c-2.317-2.316-2.777-9.664 0-12.439L323.557 106.57c3.432-3.436 9.007-3.436 12.439 0a8.794 8.794 0 0 1 0 12.439L195.461 259.545a8.765 8.765 0 0 1-6.22 2.577zM286.113 879.789a8.765 8.765 0 0 1-6.22-2.577 8.794 8.794 0 0 1 0-12.439l540.429-540.429a8.794 8.794 0 0 1 12.439 0c2.235 2.233 2.068 10.373 0 12.439L292.332 877.211a8.762 8.762 0 0 1-6.219 2.578zM405.185 879.806a8.765 8.765 0 0 1-6.22-2.577 8.794 8.794 0 0 1 0-12.439l407.397-407.397a8.794 8.794 0 0 1 12.439 0 8.794 8.794 0 0 1 0 12.439L411.404 877.229a8.763 8.763 0 0 1-6.219 2.577zM524.276 879.806a8.769 8.769 0 0 1-6.22-2.577 8.794 8.794 0 0 1 0-12.439l274.363-274.367a8.794 8.794 0 0 1 12.439 0 8.794 8.794 0 0 1 0 12.439L530.496 877.229a8.769 8.769 0 0 1-6.22 2.577zM643.365 879.806a8.769 8.769 0 0 1-6.22-2.577 8.794 8.794 0 0 1 0-12.439l141.366-141.37c3.436-3.436 9.003-3.436 12.439 0s3.436 9.003 0 12.439l-141.365 141.37a8.769 8.769 0 0 1-6.22 2.577z" fill="#1296db" p-id="5792"></path><path d="M734.299 959.691h-444.6c-22.207 0-40.301-17.873-40.553-40.329l-82.409-804.88c-0.494-4.832 3.022-9.073 7.856-9.569 4.847-0.483 9.153 3.061 9.647 7.895l82.452 805.478c0.03 0.301 0.045 0.541 0.045 0.842 0 12.749 10.515 23.466 22.961 23.466h444.599c12.448 0 22.963-10.707 22.963-23.456 0-0.301 0.017-0.564 0.047-0.865l82.471-805.365c0.494-4.83 4.742-8.325 9.647-7.848a8.798 8.798 0 0 1 7.852 9.652l-82.428 804.652c-0.251 22.452-18.343 40.327-40.55 40.327z" fill="#1296db" p-id="5793"></path></svg>