<?xml version="1.0" encoding="UTF-8"?>
<svg width="124px" height="172px" viewBox="0 0 124 172" version="1.1" xmlns="http://www.w3.org/2000/svg" xmlns:xlink="http://www.w3.org/1999/xlink">
    <!-- Generator: Sketch 52.2 (67145) - http://www.bohemiancoding.com/sketch -->
    <title>fuwuqi</title>
    <desc>Created with Sketch.</desc>
    <g id="Page-1" stroke="none" stroke-width="1" fill="none" fill-rule="evenodd">
        <g id="fuwuqi" fill="red">
            <path d="M99.5,105 C95.1451614,105 92,102.096774 92,97.5 C92,92.9032259 94.9032259,90 99.5,90 C103.854839,90 107,92.9032259 107,97.5 C107,102.096774 103.854839,105 99.5,105 Z" id="路径"></path>
            <path d="M116.56,0 L7.43999997,0 C3.22399989,0 0,3.24057977 0,7.47826085 L0,164.521739 C0,168.75942 3.22400006,172 7.43999997,172 L116.56,172 C120.776,172 124,168.75942 124,164.521739 L124,7.47826085 C124,3.24057961 120.776,4.77395901e-15 116.56,0 Z M68.1999999,102.202899 C64.7279999,102.202899 62,99.4608695 62,95.9710145 C62,92.4811595 64.7280001,89.7391305 68.1999999,89.7391305 C71.6719998,89.7391305 74.3999999,92.4811595 74.4000001,95.9710145 C74.4000002,99.4608695 71.672,102.202899 68.1999999,102.202899 Z M99.2,109.681159 C92.5040001,109.681159 86.8,104.197101 86.8,97.2173914 C86.8,90.2376812 92.2559999,84.7536232 99.2,84.7536232 C105.896,84.7536232 111.6,90.2376811 111.6,97.2173914 C111.6,104.197102 105.896,109.68116 99.2,109.681159 Z M111.6,74.7826086 L12.4000001,74.7826086 L12.4000001,49.8550724 L111.6,49.8550724 L111.6,74.7826086 Z M111.6,37.3913044 L12.4000001,37.3913044 L12.4000001,12.4637682 L111.6,12.4637682 L111.6,37.3913044 Z" id="形状" fill-rule="nonzero"></path>
        </g>
    </g>
</svg>