<?xml version="1.0" encoding="UTF-8"?>
<svg width="236px" height="175px" viewBox="0 0 236 175" version="1.1" xmlns="http://www.w3.org/2000/svg" xmlns:xlink="http://www.w3.org/1999/xlink">
    <!-- Generator: Sketch 52.2 (67145) - http://www.bohemiancoding.com/sketch -->
    <title>形状</title>
    <desc>Created with Sketch.</desc>
    <g id="Page-1" stroke="none" stroke-width="1" fill="none" fill-rule="evenodd">
        <path d="M7.59569302,35.3113436 L182.643089,35.3113436 L182.643089,146.794543 L0,146.794543 L0,35.3113436 L7.59569302,35.3113436 Z M156.961321,175 L236,175 L236,0 L156.961321,0 L156.961321,23.7997273 L229.397043,23.7997273 L229.397043,52.7097814 L194.036892,52.7097814 L194.036892,59.3531264 L229.397043,59.3531264 L229.397043,88.2629142 L194.036892,88.2629142 L194.036892,158.310154 L156.961321,158.310154 L156.961321,175 Z M213.752234,98.9000417 L228.374272,98.9000417 L228.374272,107.250823 L213.752234,107.250823 L213.752234,98.9000417 Z M213.752234,112.709721 L228.374272,112.709721 L228.374272,121.064496 L213.752234,121.064496 L213.752234,112.709721 Z M194.036628,31.0829615 L222.190487,31.0829615 L222.190487,45.4297427 L194.036628,45.4297427 L194.036628,31.0829615 Z M194.036628,66.6326326 L222.190487,66.6326326 L222.190487,80.9794137 L194.036628,80.9794137 L194.036628,66.6326326 Z M47.9635213,166.19866 L61.2706064,166.19866 L61.2706064,151.983957 L119.87811,151.983957 L119.87811,166.19866 L131.687397,166.19866 L131.687397,175 L47.9635213,175 L47.9635213,166.19866 Z M162.406877,54.3069749 L20.9554711,54.3069749 L20.9554711,127.802373 L162.406877,127.802373 L162.406877,54.3069749 Z" id="形状" fill="#3795EA" fill-rule="nonzero"></path>
    </g>
</svg>