<?xml version="1.0" encoding="UTF-8"?>
<svg width="134px" height="179px" viewBox="0 0 134 179" version="1.1" xmlns="http://www.w3.org/2000/svg" xmlns:xlink="http://www.w3.org/1999/xlink">
    <!-- Generator: Sketch 52.2 (67145) - http://www.bohemiancoding.com/sketch -->
    <title>分组 20</title>
    <desc>Created with Sketch.</desc>
    <g id="Page-1" stroke="none" stroke-width="1" fill="none" fill-rule="evenodd">
        <g id="分组-20" fill="#3795EA">
            <path d="M0,0 L134,0 L134,179 L0,179 L0,0 Z M67.0047001,160.165786 C72.5041569,159.996637 76.8736944,155.502479 76.871153,150.017938 C76.8686116,144.533398 72.4949111,140.043265 66.9952999,139.879181 C63.2860704,139.768514 59.8102529,141.678464 57.9238307,144.863921 C56.0374085,148.049379 56.0392417,152.005682 57.9286153,155.189401 C59.8179888,158.37312 63.2955749,160.279868 67.0047001,160.165786 Z M67.0047001,120.726378 C63.7603896,120.726991 61.1306824,123.348816 61.1306824,126.582788 C61.1306824,129.81676 63.7603896,132.438585 67.0047001,132.439198 C69.1039477,132.439595 71.0439027,131.323456 72.0936414,129.511314 C73.1433801,127.699171 73.1433801,125.466405 72.0936414,123.654263 C71.0439027,121.84212 69.1039477,120.725981 67.0047001,120.726378 Z M61.1295686,107.064545 C61.1295686,110.298951 63.7599546,112.920955 67.0047001,112.920955 C70.2494457,112.920955 72.8798317,110.298951 72.8798317,107.064545 C72.8798318,104.972251 71.7600381,103.038892 69.942266,101.992745 C68.1244939,100.946598 65.8849063,100.946598 64.0671343,101.992745 C62.2493622,103.038892 61.1295685,104.972251 61.1295686,107.064545 Z M100.196843,77.9792703 L100.196843,68.3091661 L33.8031568,68.3091661 L33.8031568,77.9792703 L100.196843,77.9792703 Z M100.196843,60.7005183 L100.196843,51.0397844 L33.8031568,51.0397844 L33.8031568,60.7005183 L100.196843,60.7005183 Z M100.196843,44.0120922 L100.196843,17.0726063 L33.8031568,17.0726063 L33.8031568,44.0120922 L100.196843,44.0120922 Z" id="形状" fill-rule="nonzero"></path>
            <path d="M63,150.126087 C63,152.404862 64.847312,154.252174 67.1260869,154.252174 C69.4048618,154.252174 71.2521738,152.404862 71.2521738,150.126087 C71.2521738,147.847312 69.4048618,146 67.1260869,146 C64.847312,146 63,147.847312 63,150.126087 Z" id="路径"></path>
            <polygon id="路径" points="45 27 89.5652176 27 89.5652176 35.3304348 45 35.3304348"></polygon>
        </g>
    </g>
</svg>