<?xml version="1.0" encoding="UTF-8"?>
<svg width="141px" height="169px" viewBox="0 0 141 169" version="1.1" xmlns="http://www.w3.org/2000/svg" xmlns:xlink="http://www.w3.org/1999/xlink">
    <!-- Generator: Sketch 55.2 (78181) - https://sketchapp.com -->
    <title>形状结合</title>
    <desc>Created with Sketch.</desc>
    <g id="页面-1" stroke="none" stroke-width="1" fill="none" fill-rule="evenodd">
        <path d="M3.84090909,0 L137.159091,0 C139.280366,5.44172192e-17 141,1.71963357 141,3.84090909 L141,165.159091 C141,167.280366 139.280366,169 137.159091,169 L3.84090909,169 C1.71963357,169 2.92431659e-15,167.280366 0,165.159091 L0,3.84090909 C-2.59781327e-16,1.71963357 1.71963357,3.05420725e-15 3.84090909,0 Z M92.0816327,22.0852273 C91.0221476,22.0852273 90.1632653,22.9450441 90.1632653,24.0056818 L90.1632653,52.8125 C90.1632653,53.8731378 91.0221476,54.7329545 92.0816327,54.7329545 L120.857143,54.7329545 C121.916628,54.7329545 122.77551,53.8731378 122.77551,52.8125 L122.77551,24.0056818 C122.77551,22.9450441 121.916628,22.0852273 120.857143,22.0852273 L92.0816327,22.0852273 Z M94,25.9261364 L118.938776,25.9261364 L118.938776,50.8920455 L94,50.8920455 L94,25.9261364 Z M105.511248,30.7272727 C104.980929,30.7272727 104.55102,31.1571811 104.55102,31.6875 L104.55102,34.5681818 C104.55102,35.0985007 104.980929,35.5284091 105.511248,35.5284091 L108.386712,35.5284091 C108.91703,35.5284091 109.346939,35.0985007 109.346939,34.5681818 L109.346939,31.6875 C109.346939,31.1571811 108.91703,30.7272727 108.386712,30.7272727 L105.511248,30.7272727 Z M105.511248,40.3295455 C104.980929,40.3295455 104.55102,40.7594538 104.55102,41.2897727 L104.55102,44.1704545 C104.55102,44.7007734 104.980929,45.1306818 105.511248,45.1306818 L108.386712,45.1306818 C108.91703,45.1306818 109.346939,44.7007734 109.346939,44.1704545 L109.346939,41.2897727 C109.346939,40.7594538 108.91703,40.3295455 108.386712,40.3295455 L105.511248,40.3295455 Z M18.2255334,24.0056818 C17.6952145,24.0056818 17.2653061,24.4355902 17.2653061,24.9659091 L17.2653061,27.8465909 C17.2653061,28.3769098 17.6952145,28.8068182 18.2255334,28.8068182 L21.1009972,28.8068182 C21.6313161,28.8068182 22.0612245,28.3769098 22.0612245,27.8465909 L22.0612245,24.9659091 C22.0612245,24.4355902 21.6313161,24.0056818 21.1009972,24.0056818 L18.2255334,24.0056818 Z M18.2255334,32.6477273 C17.6952145,32.6477273 17.2653061,33.0776357 17.2653061,33.6079545 L17.2653061,36.4886364 C17.2653061,37.0189552 17.6952145,37.4488636 18.2255334,37.4488636 L21.1009972,37.4488636 C21.6313161,37.4488636 22.0612245,37.0189552 22.0612245,36.4886364 L22.0612245,33.6079545 C22.0612245,33.0776357 21.6313161,32.6477273 21.1009972,32.6477273 L18.2255334,32.6477273 Z M18.2255334,41.2897727 C17.6952145,41.2897727 17.2653061,41.7196811 17.2653061,42.25 L17.2653061,45.1306818 C17.2653061,45.6610007 17.6952145,46.0909091 18.2255334,46.0909091 L21.1009972,46.0909091 C21.6313161,46.0909091 22.0612245,45.6610007 22.0612245,45.1306818 L22.0612245,42.25 C22.0612245,41.7196811 21.6313161,41.2897727 21.1009972,41.2897727 L18.2255334,41.2897727 Z M18.2255334,49.9318182 C17.6952145,49.9318182 17.2653061,50.3617266 17.2653061,50.8920455 L17.2653061,53.7727273 C17.2653061,54.3030462 17.6952145,54.7329545 18.2255334,54.7329545 L21.1009972,54.7329545 C21.6313161,54.7329545 22.0612245,54.3030462 22.0612245,53.7727273 L22.0612245,50.8920455 C22.0612245,50.3617266 21.6313161,49.9318182 21.1009972,49.9318182 L18.2255334,49.9318182 Z M27.8173701,24.0056818 C27.2870513,24.0056818 26.8571429,24.4355902 26.8571429,24.9659091 L26.8571429,27.8465909 C26.8571429,28.3769098 27.2870513,28.8068182 27.8173701,28.8068182 L30.692834,28.8068182 C31.2231528,28.8068182 31.6530612,28.3769098 31.6530612,27.8465909 L31.6530612,24.9659091 C31.6530612,24.4355902 31.2231528,24.0056818 30.692834,24.0056818 L27.8173701,24.0056818 Z M27.8173701,32.6477273 C27.2870513,32.6477273 26.8571429,33.0776357 26.8571429,33.6079545 L26.8571429,36.4886364 C26.8571429,37.0189552 27.2870513,37.4488636 27.8173701,37.4488636 L30.692834,37.4488636 C31.2231528,37.4488636 31.6530612,37.0189552 31.6530612,36.4886364 L31.6530612,33.6079545 C31.6530612,33.0776357 31.2231528,32.6477273 30.692834,32.6477273 L27.8173701,32.6477273 Z M27.8173701,41.2897727 C27.2870513,41.2897727 26.8571429,41.7196811 26.8571429,42.25 L26.8571429,45.1306818 C26.8571429,45.6610007 27.2870513,46.0909091 27.8173701,46.0909091 L30.692834,46.0909091 C31.2231528,46.0909091 31.6530612,45.6610007 31.6530612,45.1306818 L31.6530612,42.25 C31.6530612,41.7196811 31.2231528,41.2897727 30.692834,41.2897727 L27.8173701,41.2897727 Z M27.8173701,49.9318182 C27.2870513,49.9318182 26.8571429,50.3617266 26.8571429,50.8920455 L26.8571429,53.7727273 C26.8571429,54.3030462 27.2870513,54.7329545 27.8173701,54.7329545 L30.692834,54.7329545 C31.2231528,54.7329545 31.6530612,54.3030462 31.6530612,53.7727273 L31.6530612,50.8920455 C31.6530612,50.3617266 31.2231528,49.9318182 30.692834,49.9318182 L27.8173701,49.9318182 Z M37.4092069,24.0056818 C36.878888,24.0056818 36.4489796,24.4355902 36.4489796,24.9659091 L36.4489796,27.8465909 C36.4489796,28.3769098 36.878888,28.8068182 37.4092069,28.8068182 L40.2846707,28.8068182 C40.8149896,28.8068182 41.244898,28.3769098 41.244898,27.8465909 L41.244898,24.9659091 C41.244898,24.4355902 40.8149896,24.0056818 40.2846707,24.0056818 L37.4092069,24.0056818 Z M37.4092069,32.6477273 C36.878888,32.6477273 36.4489796,33.0776357 36.4489796,33.6079545 L36.4489796,36.4886364 C36.4489796,37.0189552 36.878888,37.4488636 37.4092069,37.4488636 L40.2846707,37.4488636 C40.8149896,37.4488636 41.244898,37.0189552 41.244898,36.4886364 L41.244898,33.6079545 C41.244898,33.0776357 40.8149896,32.6477273 40.2846707,32.6477273 L37.4092069,32.6477273 Z M37.4092069,41.2897727 C36.878888,41.2897727 36.4489796,41.7196811 36.4489796,42.25 L36.4489796,45.1306818 C36.4489796,45.6610007 36.878888,46.0909091 37.4092069,46.0909091 L40.2846707,46.0909091 C40.8149896,46.0909091 41.244898,45.6610007 41.244898,45.1306818 L41.244898,42.25 C41.244898,41.7196811 40.8149896,41.2897727 40.2846707,41.2897727 L37.4092069,41.2897727 Z M37.4092069,49.9318182 C36.878888,49.9318182 36.4489796,50.3617266 36.4489796,50.8920455 L36.4489796,53.7727273 C36.4489796,54.3030462 36.878888,54.7329545 37.4092069,54.7329545 L40.2846707,54.7329545 C40.8149896,54.7329545 41.244898,54.3030462 41.244898,53.7727273 L41.244898,50.8920455 C41.244898,50.3617266 40.8149896,49.9318182 40.2846707,49.9318182 L37.4092069,49.9318182 Z M47.0010436,24.0056818 C46.4707247,24.0056818 46.0408163,24.4355902 46.0408163,24.9659091 L46.0408163,27.8465909 C46.0408163,28.3769098 46.4707247,28.8068182 47.0010436,28.8068182 L49.8765074,28.8068182 C50.4068263,28.8068182 50.8367347,28.3769098 50.8367347,27.8465909 L50.8367347,24.9659091 C50.8367347,24.4355902 50.4068263,24.0056818 49.8765074,24.0056818 L47.0010436,24.0056818 Z M47.0010436,32.6477273 C46.4707247,32.6477273 46.0408163,33.0776357 46.0408163,33.6079545 L46.0408163,36.4886364 C46.0408163,37.0189552 46.4707247,37.4488636 47.0010436,37.4488636 L49.8765074,37.4488636 C50.4068263,37.4488636 50.8367347,37.0189552 50.8367347,36.4886364 L50.8367347,33.6079545 C50.8367347,33.0776357 50.4068263,32.6477273 49.8765074,32.6477273 L47.0010436,32.6477273 Z M47.0010436,41.2897727 C46.4707247,41.2897727 46.0408163,41.7196811 46.0408163,42.25 L46.0408163,45.1306818 C46.0408163,45.6610007 46.4707247,46.0909091 47.0010436,46.0909091 L49.8765074,46.0909091 C50.4068263,46.0909091 50.8367347,45.6610007 50.8367347,45.1306818 L50.8367347,42.25 C50.8367347,41.7196811 50.4068263,41.2897727 49.8765074,41.2897727 L47.0010436,41.2897727 Z M47.0010436,49.9318182 C46.4707247,49.9318182 46.0408163,50.3617266 46.0408163,50.8920455 L46.0408163,53.7727273 C46.0408163,54.3030462 46.4707247,54.7329545 47.0010436,54.7329545 L49.8765074,54.7329545 C50.4068263,54.7329545 50.8367347,54.3030462 50.8367347,53.7727273 L50.8367347,50.8920455 C50.8367347,50.3617266 50.4068263,49.9318182 49.8765074,49.9318182 L47.0010436,49.9318182 Z M68.1020408,4.80113636 L68.1020408,164.198864 L71.9387755,164.198864 L71.9387755,4.80113636 L68.1020408,4.80113636 Z M90.1632653,127.710227 L90.1632653,131.551136 L122.77551,131.551136 L122.77551,127.710227 L90.1632653,127.710227 Z M18.2244898,127.710227 L18.2244898,131.551136 L50.8367347,131.551136 L50.8367347,127.710227 L18.2244898,127.710227 Z M90.1632653,136.352273 L90.1632653,140.193182 L122.77551,140.193182 L122.77551,136.352273 L90.1632653,136.352273 Z M18.2244898,136.352273 L18.2244898,140.193182 L50.8367347,140.193182 L50.8367347,136.352273 L18.2244898,136.352273 Z M90.1632653,144.994318 L90.1632653,148.835227 L122.77551,148.835227 L122.77551,144.994318 L90.1632653,144.994318 Z M18.2244898,144.994318 L18.2244898,148.835227 L50.8367347,148.835227 L50.8367347,144.994318 L18.2244898,144.994318 Z M90.1632653,153.636364 L90.1632653,157.477273 L122.77551,157.477273 L122.77551,153.636364 L90.1632653,153.636364 Z M18.2244898,153.636364 L18.2244898,157.477273 L50.8367347,157.477273 L50.8367347,153.636364 L18.2244898,153.636364 Z" id="形状结合" fill="#3E95E4"></path>
    </g>
</svg>