<?xml version="1.0" encoding="UTF-8"?>
<svg width="176px" height="176px" viewBox="0 0 176 176" version="1.1" xmlns="http://www.w3.org/2000/svg" xmlns:xlink="http://www.w3.org/1999/xlink">
    <!-- Generator: Sketch 52.2 (67145) - http://www.bohemiancoding.com/sketch -->
    <title>分组 19</title>
    <desc>Created with Sketch.</desc>
    <g id="Page-1" stroke="none" stroke-width="1" fill="none" fill-rule="evenodd">
        <g id="分组-19" fill="#3795EA" fill-rule="nonzero">
            <path d="M29.21875,125.402344 L45.78125,125.402344 C48.1054687,125.402344 50,123.507812 50,121.183594 L50,117.238281 C50,114.914062 48.1054687,113.019531 45.78125,113.019531 L29.21875,113.019531 C26.8945312,113.019531 25,114.914062 25,117.238281 L25,121.183594 C25,123.507812 26.8945312,125.402344 29.21875,125.402344 Z M29.21875,150.304688 L45.78125,150.304688 C48.1054687,150.304688 50,148.410156 50,146.085938 L50,142.140625 C50,139.816406 48.1054687,137.921875 45.78125,137.921875 L29.21875,137.921875 C26.8945312,137.921875 25,139.816406 25,142.140625 L25,146.085938 C25,148.429688 26.8945312,150.304688 29.21875,150.304688 Z M68.4960937,125.402344 L68.6328125,125.402344 C72.0507812,125.402344 74.8242187,122.628906 74.8242187,119.210937 L74.8242187,119.191406 C74.8242187,115.773437 72.0507812,113 68.6328125,113 L68.4960937,113 C65.078125,113 62.3046875,115.773437 62.3046875,119.191406 L62.3046875,119.210937 C62.3046875,122.628906 65.078125,125.402344 68.4960937,125.402344 Z M68.4960937,150.304688 L68.6328125,150.304688 C72.0507812,150.304688 74.8242187,147.53125 74.8242187,144.113281 L74.8242187,144.09375 C74.8242187,140.675781 72.0507812,137.902344 68.6328125,137.902344 L68.4960937,137.902344 C65.078125,137.902344 62.3046875,140.675781 62.3046875,144.09375 L62.3046875,144.113281 C62.3046875,147.550781 65.078125,150.304688 68.4960937,150.304688 Z M93.4960938,125.402344 L93.6328125,125.402344 C97.0507813,125.402344 99.8242188,122.628906 99.8242188,119.210937 L99.8242188,119.191406 C99.8242188,115.773437 97.0507813,113 93.6328125,113 L93.4960938,113 C90.078125,113 87.3046875,115.773437 87.3046875,119.191406 L87.3046875,119.210937 C87.3046875,122.628906 90.078125,125.402344 93.4960938,125.402344 Z M93.4960938,150.304688 L93.6328125,150.304688 C97.0507813,150.304688 99.8242188,147.53125 99.8242188,144.113281 L99.8242188,144.09375 C99.8242188,140.675781 97.0507813,137.902344 93.6328125,137.902344 L93.4960938,137.902344 C90.078125,137.902344 87.3046875,140.675781 87.3046875,144.09375 L87.3046875,144.113281 C87.3046875,147.550781 90.078125,150.304688 93.4960938,150.304688 Z M118.300781,125.402344 L118.4375,125.402344 C121.855469,125.402344 124.628906,122.628906 124.628906,119.210937 L124.628906,119.191406 C124.628906,115.773437 121.855469,113 118.4375,113 L118.300781,113 C114.882812,113 112.109375,115.773437 112.109375,119.191406 L112.109375,119.210937 C112.109375,122.628906 114.882812,125.402344 118.300781,125.402344 Z M118.300781,150.304688 L118.4375,150.304688 C121.855469,150.304688 124.628906,147.53125 124.628906,144.113281 L124.628906,144.09375 C124.628906,140.675781 121.855469,137.902344 118.4375,137.902344 L118.300781,137.902344 C114.882812,137.902344 112.109375,140.675781 112.109375,144.09375 L112.109375,144.113281 C112.109375,147.550781 114.882812,150.304688 118.300781,150.304688 Z M143.300781,125.402344 L143.4375,125.402344 C146.855469,125.402344 149.628906,122.628906 149.628906,119.210937 L149.628906,119.191406 C149.628906,115.773437 146.855469,113 143.4375,113 L143.300781,113 C139.882812,113 137.109375,115.773437 137.109375,119.191406 L137.109375,119.210937 C137.109375,122.628906 139.882812,125.402344 143.300781,125.402344 Z M143.300781,150.304688 L143.4375,150.304688 C146.855469,150.304688 149.628906,147.53125 149.628906,144.113281 L149.628906,144.09375 C149.628906,140.675781 146.855469,137.902344 143.4375,137.902344 L143.300781,137.902344 C139.882812,137.902344 137.109375,140.675781 137.109375,144.09375 L137.109375,144.113281 C137.109375,147.550781 139.882812,150.304688 143.300781,150.304688 Z" id="形状-copy"></path>
            <path d="M175,100.371094 L174.863281,100.371094 L175.019531,100.527344 L175.019531,167.988281 C175.019531,171.933594 171.816406,175.136719 167.871094,175.136719 L7.1484375,175.136719 C3.203125,175.136719 0,171.933594 0,167.988281 L0,100.527344 L0.15625,100.371094 L0,100.371094 L13.3007813,5.37109375 C13.75,2.28515625 16.3867188,0 19.4921875,0 L155.878906,0 C159.003906,0 161.640625,2.3046875 162.070312,5.390625 L175,100.371094 Z M162.5,162.636719 L162.5,100.371094 L12.5,100.371094 L12.5,162.636719 L162.5,162.636719 Z M72.3,77.4 C73.9,77.4 75.5,74.5 76.5,73.2 L85,60.5 L76.5,52 L68.1,64.7 L51.2,64.7 C48.2,64.7 47,67.6 47,70.7 C47,73.8 48.2,77.4 51.2,77.4 L72.3,77.4 Z M127.8,65.8 L106.7,65.8 L77.1,23.5 C76.1,23.4 74.5,23.5 72.9,23.5 L55.9,23.5 L55.9,15 L39,32 L55.9,44.7 L55.9,36.2 L72.5,36.2 L98.2,74.3 C99.196875,75.6 100.8,78.5 102.4,78.5 L126.5,78.5 C129.503125,78.5 132,75.9 132,72.7 C132.103125,69.5 130.9,65.8 127.8,65.8 Z M122.9,22.4 L106,22.4 C104.3,22.4 100.5,24.2 99.403125,25.5 L89,35.1 L97.5,43.6 L106,35.1 L122.9,35.1 L122.9,43.6 L139.8,30.9 L122.9,14 L122.9,22.4 Z" id="合并形状"></path>
        </g>
    </g>
</svg>