<?xml version="1.0" encoding="UTF-8"?>
<svg width="32px" height="32px" viewBox="16 13 32 38" version="1.1" xmlns="http://www.w3.org/2000/svg" xmlns:xlink="http://www.w3.org/1999/xlink">
    <!-- Generator: Sketch 55.2 (78181) - https://sketchapp.com -->
    <title>base</title>
    <desc>Created with Sketch.</desc>
    <g id="Page-1" stroke="none" stroke-width="1" fill="none" fill-rule="evenodd">
        <g id="基础数据" transform="translate(14.000000, 14.000000)" fill="#FFFFFF" fill-rule="nonzero">
            <path d="M18.4527319,13.7986439 C20.0040946,13.7986439 21.2645768,12.5381617 21.2645768,10.986799 C21.2645768,9.43543632 20.0040946,8.17495416 18.4527319,8.17495416 C16.9013692,8.17495416 15.640887,9.43543632 15.640887,10.986799 C15.5439269,12.4412015 16.8044091,13.7986439 18.4527319,13.7986439 Z" id="路径"></path>
            <path d="M11.3746397,15.3500065 L9.43543632,17.2892099 L12.0533608,19.9071344 L13.9925642,17.9679311 C14.7682456,18.4527319 15.6408871,18.8405726 16.6104887,19.0344929 L16.6104887,21.7493776 L20.2949751,21.7493776 L20.2949751,19.0344929 C21.2645768,18.8405726 22.1372183,18.4527319 22.9128996,17.9679311 L24.852103,19.9071344 L27.4700275,17.2892099 L25.5308241,15.3500065 C26.015625,14.5743252 26.4034657,13.7016837 26.597386,12.732082 L29.3122707,12.732082 L29.3122707,9.04759567 L26.597386,9.04759567 C26.4034657,8.077994 26.015625,7.20535249 25.5308241,6.42967114 L27.4700275,4.49046777 L24.852103,1.87254324 L22.9128996,3.81174661 C22.1372183,3.32694575 21.2645768,2.9391051 20.2949751,2.74518475 L20.2949751,0.0303000676 L16.6104887,0.0303000676 L16.6104887,2.74518475 C15.6408871,2.9391051 14.7682456,3.32694575 13.9925642,3.81174661 L12.0533608,1.87254324 L9.43543632,4.49046777 L11.3746397,6.42967114 C10.8898388,7.20535249 10.5019982,8.077994 10.3080778,9.04759567 L7.59319315,9.04759567 L7.59319315,12.732082 L10.3080778,12.732082 C10.5019982,13.7016837 10.7928787,14.5743252 11.3746397,15.3500065 L11.3746397,15.3500065 Z M18.4527319,5.46006943 C21.4584971,5.46006943 23.9794615,7.88407361 23.9794615,10.986799 C23.9794615,13.9925642 21.5554573,16.5135285 18.4527319,16.5135285 C15.3500065,16.5135285 12.9260024,14.0895244 12.9260024,10.986799 C12.9260024,7.88407361 15.3500065,5.46006943 18.4527319,5.46006943 Z" id="形状"></path>
            <path d="M36.8751638,26.6943462 C36.7782036,26.2095453 36.6812434,26.015625 36.6812435,26.015625 L32.2210757,13.9925642 C32.0271554,13.4108032 31.5423546,13.1199227 30.7666732,13.1199227 L29.4092309,13.1199227 L30.2818724,15.4469667 L33.7724384,25.0460233 L2.9391051,25.0460233 L6.42967114,15.4469667 L7.30231265,13.1199227 L6.04183044,13.1199227 C5.26614908,13.1199227 4.87830842,13.4108032 4.58742792,13.9925642 L0.12726022,26.015625 C0.12726022,26.1125852 0.0303000676,26.3065055 0.0303000676,26.4034657 L0.0303000676,35.4207613 C0.0303000676,36.1964426 0.612061074,36.8751638 1.48470258,36.8751638 L35.3238011,36.8751638 C36.0994825,36.8751638 36.7782036,36.1964426 36.7782036,35.4207613 C36.8751638,35.4207613 36.7782036,27.179147 36.8751638,26.6943462 L36.8751638,26.6943462 Z M17.7740108,33.3845977 C16.5135286,33.3845977 15.4469667,32.3180359 15.4469667,31.0575537 C15.4469667,29.7970715 16.5135286,28.7305097 17.7740108,28.7305097 C19.0344929,28.7305097 20.1010548,29.7970715 20.1010548,31.0575537 C20.1010548,32.3180359 19.0344929,33.3845977 17.7740108,33.3845977 L17.7740108,33.3845977 Z M24.3673021,33.3845977 C23.10682,33.3845977 22.0402581,32.3180359 22.0402581,31.0575537 C22.0402581,29.7970715 23.10682,28.7305097 24.3673021,28.7305097 C25.6277843,28.7305097 26.6943462,29.7970715 26.6943462,31.0575537 C26.6943462,32.3180359 25.7247445,33.3845977 24.3673021,33.3845977 Z M31.0575537,33.3845977 C29.7970715,33.3845977 28.7305097,32.3180359 28.7305097,31.0575537 C28.7305097,29.7970715 29.7970715,28.7305097 31.0575537,28.7305097 C32.3180359,28.7305097 33.3845977,29.7970715 33.3845977,31.0575537 C33.3845977,32.3180359 32.3180359,33.3845977 31.0575537,33.3845977 Z" id="形状"></path>
        </g>
    </g>
</svg>