<?xml version="1.0" encoding="UTF-8"?>
<svg width="32px" height="32px" viewBox="16 13 32 38" version="1.1" xmlns="http://www.w3.org/2000/svg" xmlns:xlink="http://www.w3.org/1999/xlink">
    <!-- Generator: Sketch 55.2 (78181) - https://sketchapp.com -->
    <title>dispatch</title>
    <desc>Created with Sketch.</desc>
    <g id="Page-1" stroke="none" stroke-width="1" fill="none" fill-rule="evenodd">
        <g id="调度计划" transform="translate(13.000000, 14.000000)" fill="#FFFFFF">
            <path d="M28.4265012,16.4444444 C28.475011,15.995519 28.5,15.5381642 28.5,15.0740741 C28.5,9.01939682 24.2467051,4.11111111 19,4.11111111 C13.7532949,4.11111111 9.5,9.01939682 9.5,15.0740741 C9.5,15.5381642 9.52498896,15.995519 9.57349883,16.4444444 L6.78571429,16.4444444 L6.78571429,0 L31.2142857,0 L31.2142857,16.4444444 L28.4265012,16.4444444 Z" id="形状结合"></path>
            <path d="M14.3370214,22.9391156 C12.2330509,21.2048009 10.8571429,18.3287249 10.8571429,15.0740741 C10.8571429,9.77623147 14.5028242,5.48148148 19,5.48148148 C23.4971758,5.48148148 27.1428571,9.77623147 27.1428571,15.0740741 C27.1428571,18.2889788 25.8003494,21.1344986 23.7397334,22.8750672 L23.7397334,24.152629 C23.7397334,25.3372453 24.4012248,26.4227027 25.4540592,26.9657085 L32.8535573,30.7820445 C35.1807144,31.9822899 36.6428571,34.3815559 36.6428571,37 L1.35714286,37 C1.35714286,34.3825953 2.82202523,31.9853446 5.15114569,30.79119 L12.488069,27.0295039 C13.6231322,26.44755 14.3370214,25.2792845 14.3370214,24.0037302 L14.3370214,22.9391156 Z" id="形状结合"></path>
            <polygon id="矩形" points="32.5714286 0 38 4.4047619 38 20.5555556 32.5714286 16.1507937"></polygon>
            <polygon id="矩形备份-7" transform="translate(2.714286, 10.277778) scale(-1, 1) translate(-2.714286, -10.277778) " points="0 0 5.42857143 4.4047619 5.42857143 20.5555556 0 16.1507937"></polygon>
        </g>
    </g>
</svg>