<?xml version="1.0" encoding="UTF-8"?>
<svg width="32px" height="32px" viewBox="18 14 32 38" version="1.1" xmlns="http://www.w3.org/2000/svg" xmlns:xlink="http://www.w3.org/1999/xlink">
    <!-- Generator: Sketch 55.2 (78181) - https://sketchapp.com -->
    <title>groups_manage</title>
    <desc>Created with Sketch.</desc>
    <g id="Page-1" stroke="none" stroke-width="1" fill="none" fill-rule="evenodd">
        <path d="M47.7801691,22.8567857 C46.7878935,17.0274378 41.3872326,13.1387541 35.7204463,14.163968 C30.0612529,15.1893704 25.2789586,19.6785473 26.278642,25.5005399 C26.4943944,26.76018 27.0910931,28.72291 27.7959459,30.1362567 L17.5128,45.2440164 C17.1316684,45.8005664 16.9159161,46.803903 17.0309223,47.4775719 L17.4768722,50.0626724 C17.0525901,47.5728134 17.5918784,50.9634122 17.9226369,50.9487016 L21.309671,51 C21.9641506,50.8828812 22.7838244,50.3189759 23.1434733,49.7477152 L27.2136923,43.2665757 L27.249435,43.2226326 L30.8020335,43.5083572 L35.5552522,35.9214729 C37.1158917,36.192487 39.3521231,36.0972454 40.6825651,35.8630078 C46.3202758,34.8376054 48.7870752,28.6787783 47.7801691,22.8567857 Z M20.2949868,46.2805461 L19.4054945,46.8508637 L19.6127278,45.8262156 L29.2634322,31.7606436 L29.9308755,32.2364741 L20.2949868,46.2805461 Z M42.7678624,25.8373743 C41.2074081,28.1224169 39.6182486,26.5112318 37.396092,24.907402 C35.1739354,23.3035722 33.1532711,22.3224901 34.7137254,20.0300923 C36.2741798,17.745427 39.3376779,17.181333 41.5596493,18.7851628 C43.7818059,20.3961593 44.3283168,23.5525204 42.7678624,25.8373743 L42.7678624,25.8373743 Z" id="权限管理" fill="#FFFFFF" fill-rule="nonzero"></path>
    </g>
</svg>