<?xml version="1.0" encoding="UTF-8"?>
<svg width="32px" height="32px" viewBox="16 13 32 38" version="1.1" xmlns="http://www.w3.org/2000/svg" xmlns:xlink="http://www.w3.org/1999/xlink">
    <!-- Generator: Sketch 55.2 (78181) - https://sketchapp.com -->
    <title>maintenance</title>
    <desc>Created with Sketch.</desc>
    <g id="Page-1" stroke="none" stroke-width="1" fill="none" fill-rule="evenodd">
        <g id="车辆检修" transform="translate(16.000000, 13.000000)" fill="#FFFFFF">
            <path d="M18.0138987,36.6428571 L12.4241071,36.6428571 L12.4241071,34.487395 L0,34.487395 L0,32.3319328 L15.4548424,32.3319328 C15.9076616,33.9928916 16.8052922,35.4738989 18.0138987,36.6428571 Z M31.625,23.2085234 C29.8780391,21.4489198 27.4431962,20.3571429 24.75,20.3571429 C19.4342593,20.3571429 15.125,24.6104377 15.125,29.8571429 C15.125,29.9640067 15.1267877,30.0704585 15.1303351,30.1764706 L4.31092437,30.1764706 C1.93006658,30.1764706 1.17974941e-15,28.246404 0,25.8655462 L0,4.31092437 C5.96607433e-16,1.93006658 1.93006658,-2.22717878e-15 4.31092437,-3.55271368e-15 L27.3140756,-3.55271368e-15 C29.6949334,-5.21651825e-15 31.625,1.93006658 31.625,4.31092437 L31.625,23.2085234 Z M4.51785714,6.46638655 L4.51785714,15.0882353 L13.5535714,15.0882353 L13.5535714,6.46638655 L4.51785714,6.46638655 Z M18.0714286,6.46638655 L18.0714286,15.0882353 L27.1071429,15.0882353 L27.1071429,6.46638655 L18.0714286,6.46638655 Z M4.51785714,21.5546218 L4.51785714,26.9432773 L7.90625,26.9432773 L7.90625,21.5546218 L4.51785714,21.5546218 Z" id="形状结合"></path>
            <path d="M24.75,38 C20.1936508,38 16.5,34.3543187 16.5,29.8571429 C16.5,25.359967 20.1936508,21.7142857 24.75,21.7142857 C29.3063492,21.7142857 33,25.359967 33,29.8571429 C33,34.3543187 29.3063492,38 24.75,38 Z M25.8380697,34.114466 L25.8603175,30.9244456 C26.2024875,30.7800638 26.5237834,30.5687043 26.8036419,30.2924803 C27.9687993,29.1424548 27.9821637,27.2894609 26.8317026,26.1539408 C26.4703221,25.7972536 26.0372447,25.5543649 25.5771482,25.4229978 L25.5611076,27.785026 C25.5608316,27.860671 25.5297289,27.9338379 25.4748038,27.9880497 C25.4198786,28.0422616 25.345749,28.0729603 25.2691087,28.0732327 L24.1755487,28.0804076 C24.0149111,28.0810189 23.8867768,27.9545486 23.8873961,27.7959973 L23.903416,25.4355047 C23.4271386,25.5760113 22.9918669,25.8333089 22.638842,26.1830137 C21.4736846,27.3330392 21.4603237,29.1860367 22.6107848,30.3215567 C22.929948,30.6365749 23.3042986,30.8622718 23.7047141,31.0010267 L23.6836032,34.1299215 C23.6795993,34.7026941 24.1501308,35.1671149 24.73044,35.163188 L24.7771135,35.1628558 C25.0554209,35.1605982 25.3242086,35.0484885 25.5235266,34.8515316 C25.7228443,34.6545744 25.8361132,34.3891528 25.8380697,34.114466 Z" id="形状结合"></path>
        </g>
    </g>
</svg>