<?xml version="1.0" encoding="UTF-8"?>
<svg width="32px" height="32px" viewBox="18 14 30 38" version="1.1" xmlns="http://www.w3.org/2000/svg" xmlns:xlink="http://www.w3.org/1999/xlink">
    <!-- Generator: Sketch 55.2 (78181) - https://sketchapp.com -->
    <title>maintenance_system</title>
    <desc>Created with Sketch.</desc>
    <g id="Page-1" stroke="none" stroke-width="1" fill="none" fill-rule="evenodd">
        <g id="维保管理" transform="translate(17.000000, 14.000000)" fill="#FFFFFF" fill-rule="nonzero">
            <path d="M15.1835229,6.99904232 L18.9437463,6.99904232 L18.9437463,8.64685225 L15.1835229,8.64685225 L15.1835229,6.99904232 Z M15.5000289,-1.22124675e-15 L0.248113173,5.60655438 L0.248113173,21.8635928 C0.248113173,31.5199537 15.5000289,37.0000431 15.5000289,37.0000431 C15.5000289,37.0000431 30.7519447,31.5199537 30.7519447,21.8635928 L30.7519447,5.60655438 L15.5000289,-1.22124675e-15 Z M13.6216349,5.55575158 L20.5079289,5.55575158 L20.5079289,10.0866309 L17.8520308,10.0866309 L17.8520308,11.1765026 L21.2831405,11.1765026 L21.2831405,12.5571642 L18.5859563,12.5571642 L18.5859566,12.5571645 C19.3353302,13.5254166 20.3123166,14.2802102 21.4241925,14.7499084 C21.0327641,15.3961084 20.7231401,15.920949 20.4953169,16.3244301 L20.4953166,16.3244299 C19.4043677,15.6373492 18.4957671,14.6820869 17.8508844,13.5441982 L17.8508844,17.0147625 L16.1834948,17.0147625 L16.1834948,13.6233978 L16.1834951,13.6233975 C15.4306021,14.7305046 14.4961285,15.6937486 13.4220964,16.4698282 L13.4220969,16.469829 C13.1546485,15.9660756 12.8562669,15.4804392 12.5287726,15.0158863 L12.5287726,15.0158861 C13.5976276,14.37976 14.5437915,13.5463087 15.3199916,12.5571754 L12.8578937,12.5571754 L12.8578937,11.1765102 L16.1835029,11.1765102 L16.1835029,10.0866385 L13.6216392,10.0866385 L13.6216392,5.55575158 L13.6216349,5.55575158 Z M11.776496,5.04742811 L13.3510017,5.53210986 L13.3510017,5.53210679 C13.0896842,6.51283557 12.7796507,7.47907507 12.4221261,8.42700244 L12.4221261,17.0159265 L10.9416558,17.0159265 L10.9416558,11.6256634 C10.6847813,12.0811542 10.410704,12.5252197 10.119427,12.9578601 L10.1194269,12.9578596 C10.0347426,12.1834314 9.90531108,11.4149 9.73182259,10.6563666 L9.73182259,10.6563673 C10.6656442,8.89503151 11.3539721,7.00680441 11.7764964,5.04742811 L11.776496,5.04742811 Z M27.1866783,21.9321621 L22.8083566,26.6403454 L22.8083566,26.6403454 C22.573549,26.892686 22.2747758,27.0720643 21.9459916,27.158093 L21.9368175,27.158093 L12.2421075,28.5836714 L10.2708252,30.7031271 L10.2708252,30.7031271 C10.1216063,30.8619328 9.87580732,30.8661644 9.72152637,30.7125837 L5.17347565,26.2206918 L5.17347561,26.2206917 C5.01497247,26.0609563 5.01210334,25.7990177 5.16706689,25.6356322 C5.18083905,25.6211117 5.19562966,25.6076561 5.21131877,25.5953744 L12.0437356,20.3209532 L12.0437358,20.3209531 C12.3610144,20.0810407 12.7274226,19.9192895 13.1148093,19.8481258 L13.1434784,19.8481258 L13.1721474,19.8575824 C15.1873903,20.566827 17.2026333,21.2705541 19.2178587,21.9687637 L19.2178587,21.9687637 C19.5012754,22.0618296 19.7742278,22.185864 20.0320568,22.3387533 L20.0320569,22.3387533 C20.5887449,22.6580814 20.8655589,23.3249996 20.7052066,23.9605548 L20.7052067,23.9605546 C20.6161933,24.3039403 20.3932853,24.594043 20.0893974,24.7619994 L20.0893975,24.7619994 C19.882817,24.8793043 19.636643,24.8970282 19.4162477,24.8104643 C19.4070736,24.8104643 19.3875786,24.8010078 19.3784046,24.8010078 L15.5218542,23.6000239 L15.5218542,23.600024 C15.2732688,23.5216832 15.0101398,23.6658988 14.9341403,23.9221386 C14.8581398,24.1783783 14.9980474,24.4496096 15.2466327,24.5279493 L19.0848502,25.7194771 L19.0848503,25.7194771 C19.2766532,25.7899684 19.4786833,25.8263426 19.6823126,25.8270457 L19.6823126,25.8270457 C19.9688031,25.8255765 20.2510521,25.7555728 20.5068339,25.6225471 L20.506834,25.6225471 C21.0535529,25.3280416 21.4557006,24.811061 21.6157513,24.1969687 L21.6157513,24.1969686 C21.7728271,23.6743141 21.735629,23.110114 21.511396,22.6141725 L24.5812759,19.351654 L24.5812759,19.3516541 C24.9085307,18.9910886 25.363768,18.7829121 25.8427144,18.7748039 L25.8805575,18.7748039 L25.8805576,18.7748039 C26.8799678,18.7748039 27.6900435,19.6100365 27.6900435,20.6402203 C27.6900435,21.1206897 27.5101293,21.5826193 27.1878636,21.9297549 L27.1866783,21.9321621 Z" id="形状"></path>
        </g>
    </g>
</svg>