<?xml version="1.0" encoding="UTF-8"?>
<svg width="32px" height="32px" viewBox="16 14 33 36" version="1.1" xmlns="http://www.w3.org/2000/svg" xmlns:xlink="http://www.w3.org/1999/xlink">
    <!-- Generator: Sketch 55.2 (78181) - https://sketchapp.com -->
    <title>production</title>
    <desc>Created with Sketch.</desc>
    <g id="Page-1" stroke="none" stroke-width="1" fill="none" fill-rule="evenodd">
        <g id="生产信息" transform="translate(14.000000, 14.000000)">
            <path d="M34.3943945,0 C35.166101,-1.41760194e-16 35.886749,0.385679114 36.3148148,1.02777778 C36.7297296,1.65014992 36.7297296,2.46096119 36.3148148,3.08333333 C35.8680395,3.75349628 35.6296296,4.54091065 35.6296296,5.34634627 L35.6296296,27.4187745 C35.6296296,27.7841435 35.5876631,28.0830047 35.2223049,28.0830047 L19.1630245,28.0830047 L19.1630245,31.4272857 L29.8971834,35.7171205 C30.2368712,35.8560667 30.4002551,36.2424047 30.2648714,36.5809164 C30.1610038,36.8400849 29.9123908,37 29.6497565,37 C29.5680858,37 29.4828567,36.9825047 29.4034734,36.9521314 L18.5000424,32.5946027 L7.59894126,36.9521314 C7.5184142,36.9825047 7.43437126,37 7.3526581,37 C7.09002385,37 6.84026712,36.8400425 6.73635714,36.5809164 C6.60093105,36.2423623 6.76554344,35.8560243 7.10637494,35.7171205 L17.8358318,31.4272433 L17.8358318,28.0829624 L1.77888117,28.0829624 C1.41004948,28.0829624 1.37037037,27.7727764 1.37037037,27.4074074 L1.37037037,5.34634627 C1.37037037,4.54091065 1.13196048,3.75349628 0.685185185,3.08333333 C0.270270422,2.46096119 0.270270422,1.65014992 0.685185185,1.02777778 C1.11325096,0.385679114 1.83389898,5.85849404e-16 2.60560553,0 L34.3943945,0 Z M9.59259259,13.1460996 C9.59259259,12.6866904 9.21878224,12.3333333 8.77040687,12.3333333 L6.3036672,12.3333333 C5.85529184,12.3333333 5.48148148,12.7219951 5.48148148,13.1460996 L5.48148148,24.6666667 L9.59259259,24.6666667 L9.59259259,13.1460996 Z M17.8148148,24.6666667 L17.8148148,6.42123863 C17.8148148,5.9122067 17.4411172,5.48148148 16.9925999,5.48148148 L14.5258821,5.48148148 C14.0775107,5.48148148 13.7037037,5.9122067 13.7037037,6.42123863 L13.7037037,24.6666667 L17.8148148,24.6666667 Z M24.6666667,24.6666667 L24.6666667,17.3023493 C24.6666667,16.837613 24.2930056,16.4444444 23.8444882,16.4444444 L21.3779165,16.4444444 C20.9293991,16.4444444 20.5555556,16.837613 20.5555556,17.3023493 L20.5555556,24.6666667 L24.6666667,24.6666667 Z M31.5185185,24.6666667 L31.5185185,13.1460996 C31.5185185,12.6866904 31.1448409,12.3333333 30.6963036,12.3333333 L28.2296223,12.3333333 C27.781085,12.3333333 27.4074074,12.7219951 27.4074074,13.1460996 L27.4074074,24.6666667 L31.5185185,24.6666667 Z M2.0489418,1.37037037 C1.67417715,1.37037037 1.37037037,1.67417715 1.37037037,2.0489418 L1.37037037,2.06216931 C1.37037037,2.43693396 1.67417715,2.74074074 2.0489418,2.74074074 L34.9510582,2.74074074 C35.3258229,2.74074074 35.6296296,2.43693396 35.6296296,2.06216931 L35.6296296,2.0489418 C35.6296296,1.67417715 35.3258229,1.37037037 34.9510582,1.37037037 L2.0489418,1.37037037 Z" id="形状结合" fill="#FFFFFF" fill-rule="nonzero"></path>
            <g id="编组-2" transform="translate(5.481481, 5.481481)"></g>
        </g>
    </g>
</svg>