<?xml version="1.0" encoding="UTF-8"?>
<svg width="32px" height="32px" viewBox="16 14 32 36" version="1.1" xmlns="http://www.w3.org/2000/svg" xmlns:xlink="http://www.w3.org/1999/xlink">
    <!-- Generator: Sketch 55.2 (78181) - https://sketchapp.com -->
    <title>setting</title>
    <desc>Created with Sketch.</desc>
    <g id="Page-1" stroke="none" stroke-width="1" fill="none" fill-rule="evenodd">
        <g id="tubiao01" transform="translate(15.000000, 14.000000)" fill="#FFFFFF" fill-rule="nonzero">
            <path d="M31.6861344,17.9380427 C31.6861344,17.0434635 31.5925076,16.3947062 31.5925076,16.3947062 C31.507389,15.8047947 31.8574351,15.0783792 32.3703499,14.7805175 L34.3100748,13.654149 C34.8230276,13.3562491 35.0002157,12.6902853 34.7038767,12.1741701 L31.0247083,5.76624326 C30.7283693,5.25012806 30.0661836,5.0714875 29.5531928,5.36923452 L27.6159747,6.49365291 C27.102984,6.79143815 26.3006811,6.73576593 25.8331173,6.36995811 C25.8331173,6.36995811 25.3158725,5.96530208 24.5637064,5.52852747 C23.8068684,5.08942043 23.1743469,4.83013928 23.1743469,4.83013928 C22.6259186,4.60534736 22.1771561,3.93368641 22.1771561,3.3375424 L22.1771561,1.08388781 C22.1771561,0.487743805 21.6926522,5.68434189e-14 21.1004681,5.68434189e-14 L13.7448279,5.68434189e-14 C13.1526438,5.68434189e-14 12.6681399,0.487743768 12.6681399,1.08388778 L12.6681399,3.33758059 C12.6681399,3.93368637 12.2194154,4.60534732 11.670949,4.83017747 C11.670949,4.83017747 11.0384275,5.0894204 10.2839065,5.52623326 C9.52946145,5.9653403 9.01217867,6.36999633 9.01217867,6.36999633 C8.54461489,6.73580416 7.74242592,6.79128522 7.22954909,6.49327053 L5.29187523,5.36736091 C4.77903641,5.06934626 4.11707856,5.24787211 3.82089152,5.76410198 L0.143470321,12.1739407 C-0.152678708,12.6901324 0.0246232748,13.3563256 0.537462092,13.6543402 L2.47517392,14.7802498 C2.98801274,15.0782645 3.3379829,15.8047565 3.25286423,16.3946679 C3.25286423,16.3946679 3.15923753,17.0434635 3.15923753,17.9380045 C3.15923753,18.834878 3.25286423,19.4837118 3.25286423,19.4837118 C3.33798286,20.0736615 2.98789879,20.7999623 2.47494599,21.0977093 L0.537727914,22.2221277 C0.0247371826,22.5198747 -0.152564838,23.1858384 0.143698137,23.7019918 L3.82313245,30.1120599 C4.11943343,30.6281751 4.78142926,30.8066627 5.29430604,30.5086863 L7.23201787,29.3827767 C7.74485669,29.0848002 8.54647594,29.1410078 9.01335605,29.5077333 C9.01335605,29.5077333 9.48775666,29.8803472 10.2167155,30.3101246 C10.9898099,30.7655586 11.6712908,31.0453344 11.6712908,31.0453344 C12.2196432,31.2704705 12.6682537,31.9423608 12.6682537,32.5385048 L12.6682537,34.7921594 C12.6682537,35.3883034 13.1527576,35.8760472 13.7449418,35.8760472 L21.1005439,35.8760472 C21.692728,35.8760472 22.177232,35.3883034 22.177232,34.7921594 L22.177232,32.5385048 C22.177232,31.9423608 22.6259944,31.2708146 23.1744987,31.0461374 C23.1744987,31.0461374 23.8022724,30.7889592 24.5521596,30.354517 C25.3089596,29.91541 25.8311801,29.5064715 25.8311801,29.5064715 C26.2985919,29.1404725 27.1007049,29.0847238 27.6136577,29.3825855 L29.5533446,30.5089539 C30.0662974,30.8068156 30.7283312,30.6281751 31.0244803,30.1119452 L34.7019395,23.7021447 C34.9981265,23.1859148 34.8207106,22.5199129 34.3077198,22.2221659 L32.3704259,21.0977093 C31.8574351,20.7999623 31.507351,20.0736615 31.5925076,19.4837118 C31.5925076,19.4837118 31.6861344,18.8349162 31.6861344,17.9380427 Z M17.422629,23.9173393 C14.1399971,23.9173393 11.4795175,21.240637 11.4795175,17.9380045 C11.4795175,14.635372 14.1399971,11.9586697 17.422629,11.9586697 C20.7052988,11.9586697 23.3657784,14.635372 23.3657784,17.9380045 C23.3657784,21.240637 20.7052988,23.9173393 17.422629,23.9173393 Z" id="形状"></path>
        </g>
    </g>
</svg>